<svg class="{{ with .class }}{{ . }} {{ end }}icon icon-github" width="24" height="24" viewBox="0 0 36 24"><path d="M14.514,17.063l-0,-10.125l8.906,5.062l-8.906,5.063Zm19.804,-13.313c-0.392,-1.477 -1.547,-2.637 -3.011,-3.035c-2.655,-0.715 -13.307,-0.715 -13.307,-0.715c-0,0 -10.652,0 -13.307,0.715c-1.464,0.398 -2.619,1.558 -3.011,3.035c-0.715,2.672 -0.715,8.25 -0.715,8.25c-0,0 -0,5.578 0.715,8.25c0.392,1.477 1.541,2.637 3.011,3.035c2.655,0.715 13.307,0.715 13.307,0.715c-0,0 10.652,0 13.307,-0.715c1.464,-0.398 2.619,-1.558 3.011,-3.035c0.715,-2.672 0.715,-8.25 0.715,-8.25c0,0 0,-5.578 -0.715,-8.25" style="fill:#fefefe;fill-rule:nonzero;"/></svg>
